# xmcd
#
# Track frame offsets: 
#        150
#        20182
#        42600
#        62097
#        83997
#        101962
#        123427
#        152055
#        168910
#        196770
#        220935
#        240975
#        259115
#
# Disc length: 3728 seconds
#
# Revision: 0
# Processed by: cddbd v1.4PL0 Copyright (c) Steve Scherf et al.
# Submitted via: ExactAudioCopy v0.90b4
#
DISCID=b50e8e0d
DTITLE=Carcass - Death'n' roll (live)
DYEAR=1994
DGENRE=Death Metal
TTITLE0=Buried dreams
TTITLE1=Incarnate solvent abuse
TTITLE2=Carnal forge
TTITLE3=Pedigree butchery
TTITLE4=No love lost
TTITLE5=Heartwork
TTITLE6=Carneous cacoffiny
TTITLE7=Lavaging expectorate of lysergide composition
TTITLE8=Embodiment
TTITLE9=Corporal jigsore quandatary
TTITLE10=Death certificate
TTITLE11=Rot 'n' roll
TTITLE12=This mortal coil
EXTD=
EXTT0=
EXTT1=
EXTT2=
EXTT3=
EXTT4=
EXTT5=
EXTT6=
EXTT7=
EXTT8=
EXTT9=
EXTT10=
EXTT11=
EXTT12=
PLAYORDER=
